# xmcd
#
# Track frame offsets:
#	150
#	40423
#	55553
#	90262
#	100748
#	125955
#	136128
#	160720
#	169057
#	178328
#	192690
#	215203
#	225488
#	242453
#	251871
#	265851
#
# Disc length: 3633 seconds
#
# Revision: 2
# Processed by: cddbd v1.5.2PL0 Copyright (c) Steve Scherf et al.
# Submitted via: EasyCDDAExtractor 12.0.5.1
#
DISCID=e20e2f10
DTITLE=Richie Arndt - Train Stories (Stories)
DYEAR=2009
DGENRE=Audiobook
TTITLE0=Kapitel 1
TTITLE1=Railroad Bill (trad.)
TTITLE2=Kapitel 2
TTITLE3=Hobo Blues (Hooker/Josea)
TTITLE4=Kapitel 3
TTITLE5=Hear My Train a Comin (Hendrix)
TTITLE6=Kapitel 4
TTITLE7=Midnight Special (trad.)
TTITLE8=Kapitel 5
TTITLE9=Honky Tonk Train Blues (Lewis)
TTITLE10=Kapitel 6
TTITLE11=Five Hundred Miles (West)
TTITLE12=Kapitel 7
TTITLE13=Empire State Express (House)
TTITLE14=Kapitel 8
TTITLE15=Rock Island Line (trad. Ledbetter)
EXTD=
EXTT0=
EXTT1=
EXTT2=
EXTT3=
EXTT4=
EXTT5=
EXTT6=
EXTT7=
EXTT8=
EXTT9=
EXTT10=
EXTT11=
EXTT12=
EXTT13=
EXTT14=
EXTT15=
PLAYORDER=
